<svg width="30" height="30" fill="none" xmlns="http://www.w3.org/2000/svg"><g clip-path="url(#a)" fill="#fff"><path d="M15 2.703c4.005 0 4.478.015 6.061.087 1.463.067 2.257.312 2.786.517.652.24 1.242.624 1.727 1.122a4.653 4.653 0 0 1 1.121 1.727c.206.528.45 1.322.517 2.785.072 1.581.087 2.056.087 6.06 0 4.006-.015 4.48-.087 6.062-.067 1.463-.311 2.257-.517 2.786a4.968 4.968 0 0 1-2.846 2.846c-.53.206-1.323.45-2.786.517-1.581.072-2.056.087-6.061.087-4.006 0-4.48-.015-6.061-.087-1.463-.067-2.257-.311-2.785-.517a4.647 4.647 0 0 1-1.727-1.122 4.645 4.645 0 0 1-1.122-1.727c-.205-.529-.45-1.323-.517-2.785-.072-1.582-.087-2.056-.087-6.062 0-4.005.015-4.478.087-6.062.067-1.46.313-2.255.517-2.783a4.653 4.653 0 0 1 1.122-1.727 4.653 4.653 0 0 1 1.727-1.122c.526-.203 1.32-.448 2.783-.515 1.582-.072 2.056-.087 6.061-.087ZM15 0c-4.073 0-4.585.017-6.184.09-1.6.074-2.687.327-3.641.698-1.001.376-1.908.967-2.657 1.73a7.356 7.356 0 0 0-1.73 2.656C.417 6.13.163 7.22.09 8.818.018 10.416 0 10.928 0 15.002s.017 4.585.09 6.184c.074 1.6.327 2.688.698 3.642a7.346 7.346 0 0 0 1.73 2.656 7.347 7.347 0 0 0 2.657 1.73c.953.372 2.044.625 3.64.698 1.598.073 2.112.09 6.185.09 4.073 0 4.585-.017 6.185-.09 1.6-.073 2.687-.326 3.64-.697a7.672 7.672 0 0 0 4.388-4.387c.37-.953.624-2.045.697-3.642.073-1.596.09-2.11.09-6.184s-.017-4.585-.09-6.184c-.073-1.6-.326-2.687-.697-3.642a7.355 7.355 0 0 0-1.73-2.659A7.352 7.352 0 0 0 24.826.791C23.873.42 22.78.166 21.185.093 19.588.021 19.074.003 15 .003V0Z"/><path d="M15 7.298a7.703 7.703 0 1 0 0 15.406 7.703 7.703 0 0 0 0-15.406ZM15 20a5.001 5.001 0 1 1 0-10.002A5.001 5.001 0 0 1 15 20ZM23.007 8.793a1.8 1.8 0 1 0 0-3.6 1.8 1.8 0 0 0 0 3.6Z"/></g><defs><clipPath id="a"><path fill="#fff" d="M0 0h30v30H0z"/></clipPath></defs></svg>