<svg width="142" height="43" fill="none" xmlns="http://www.w3.org/2000/svg"><g clip-path="url(#a)" fill="#fff"><path d="M45.898 13.78h-2.115v4.473a.25.25 0 0 1-.252.252h-2.162a.25.25 0 0 1-.252-.252V5.863a.25.25 0 0 1 .252-.253h4.544c1.515 0 2.698.332 3.519 1.011.82.68 1.23 1.644 1.23 2.877 0 .885-.189 1.612-.568 2.196-.378.585-.962 1.059-1.72 1.407l2.651 5.025c.095.158-.031.363-.22.363h-2.32a.305.305 0 0 1-.268-.158l-2.32-4.55Zm-2.115-2.149h2.13c.663 0 1.184-.174 1.547-.506.362-.332.552-.806.552-1.406 0-.6-.174-1.09-.52-1.438-.348-.348-.869-.522-1.579-.522h-2.13v3.872ZM57.763 18.347a3.862 3.862 0 0 1-.19-.71c-.615.694-1.42 1.026-2.414 1.026-.93 0-1.72-.268-2.32-.806-.614-.537-.914-1.232-.914-2.054 0-1.011.378-1.786 1.12-2.339.757-.537 1.83-.822 3.25-.822h1.168v-.553c0-.442-.11-.79-.347-1.059-.221-.268-.584-.395-1.073-.395-.426 0-.773.111-1.01.316-.19.174-.316.38-.347.648a.252.252 0 0 1-.237.206h-2.067a.25.25 0 0 1-.252-.285c.047-.442.22-.869.505-1.264.347-.474.82-.837 1.451-1.106.631-.269 1.326-.395 2.099-.395 1.183 0 2.114.3 2.808.885.694.6 1.041 1.422 1.041 2.497v4.14c0 .727.08 1.36.3 1.85.08.173-.031.363-.22.363h-2.115c-.11 0-.205-.048-.236-.143ZM55.71 16.72c.379 0 .726-.08 1.042-.253.315-.174.552-.395.71-.68v-1.643h-.947c-1.278 0-1.956.442-2.035 1.327l-.016.158c0 .316.11.585.331.79.221.19.52.3.915.3ZM66.96 15.85c0-.316-.157-.553-.457-.742-.315-.174-.804-.348-1.483-.49-2.272-.474-3.408-1.438-3.408-2.908 0-.853.347-1.565 1.057-2.133.71-.57 1.625-.854 2.761-.854 1.215 0 2.178.285 2.904.854.662.521 1.01 1.169 1.072 1.975.016.142-.11.253-.252.253h-2.067a.227.227 0 0 1-.237-.206 1.173 1.173 0 0 0-.347-.695c-.236-.237-.6-.363-1.104-.363-.426 0-.757.094-.994.284a.907.907 0 0 0-.347.743c0 .284.126.505.394.68.268.173.726.331 1.357.458.631.126 1.168.268 1.61.426 1.34.49 2.019 1.36 2.019 2.576 0 .87-.379 1.58-1.12 2.118-.742.537-1.72.806-2.903.806-.805 0-1.515-.143-2.13-.427a3.747 3.747 0 0 1-1.468-1.17c-.3-.41-.473-.853-.52-1.327a.257.257 0 0 1 .252-.284h1.94c.111 0 .222.079.237.19.064.363.221.647.49.853.315.237.725.363 1.246.363.49 0 .852-.095 1.104-.284a.759.759 0 0 0 .395-.696ZM79.583 13.796c0 1.47-.331 2.655-1.01 3.54-.662.885-1.577 1.327-2.713 1.327-.963 0-1.752-.332-2.335-1.011v4.267a.25.25 0 0 1-.253.253h-2.051a.25.25 0 0 1-.252-.253V9.166a.25.25 0 0 1 .252-.253h1.893c.126 0 .237.095.253.221l.063.711c.615-.742 1.42-1.122 2.414-1.122 1.183 0 2.098.443 2.745 1.312.647.87.978 2.07.978 3.603v.158h.016Zm-2.556-.19c0-.885-.158-1.58-.473-2.054-.316-.49-.773-.727-1.373-.727-.805 0-1.357.3-1.656.917v3.919c.315.632.867.948 1.672.948 1.215 0 1.83-.996 1.83-3.003ZM89.681 13.796c0 1.533-.331 2.734-.978 3.587-.647.854-1.562 1.28-2.746 1.28-1.04 0-1.861-.395-2.477-1.2l-.094.79a.255.255 0 0 1-.253.22h-1.83a.25.25 0 0 1-.252-.252V5.15a.25.25 0 0 1 .252-.252h2.051a.25.25 0 0 1 .252.253v4.63c.584-.695 1.357-1.027 2.32-1.027 1.167 0 2.082.427 2.745 1.28.663.853.994 2.07.994 3.619v.142h.016Zm-2.556-.19c0-.964-.158-1.675-.458-2.117-.3-.443-.757-.664-1.372-.664-.805 0-1.373.332-1.673.996v3.777c.316.68.884 1.01 1.689 1.01.82 0 1.372-.41 1.625-1.216.126-.395.189-.995.189-1.786ZM95.519 18.663c-1.404 0-2.54-.426-3.424-1.296-.884-.853-1.325-2.007-1.325-3.445v-.252c0-.964.189-1.818.552-2.576.379-.759.9-1.344 1.578-1.754.678-.411 1.451-.617 2.319-.617 1.31 0 2.335.411 3.092 1.233.758.822 1.12 1.991 1.12 3.508v.79a.25.25 0 0 1-.252.253h-5.838c.08.632.332 1.122.742 1.501.41.38.947.57 1.578.57.883 0 1.593-.285 2.13-.87.094-.11.268-.095.363.016l.93 1.043c.08.095.095.221.016.316a3.892 3.892 0 0 1-1.435 1.106c-.616.332-1.342.474-2.146.474Zm-.284-7.854c-.505 0-.915.174-1.23.522-.316.347-.522.837-.6 1.47h3.55v-.206c-.016-.569-.158-1.011-.458-1.312-.3-.316-.726-.474-1.262-.474ZM106.263 11.046a.24.24 0 0 1-.268.237c-.237-.031-.457-.031-.647-.031-.962 0-1.593.332-1.893.98v6.02a.25.25 0 0 1-.253.253h-2.051a.249.249 0 0 1-.252-.252V9.166c0-.143.11-.253.252-.253h1.925c.126 0 .237.095.253.237l.063.9c.505-.884 1.215-1.311 2.13-1.311.205 0 .41.016.615.063a.25.25 0 0 1 .189.237l-.063 2.007ZM112.716 11.046a.24.24 0 0 1-.268.237c-.236-.031-.457-.031-.647-.031-.962 0-1.593.332-1.893.98v6.02c0 .143-.11.253-.252.253h-2.052a.249.249 0 0 1-.252-.252V9.166c0-.143.11-.253.252-.253h1.925c.127 0 .237.095.253.237l.063.9c.505-.884 1.215-1.311 2.13-1.311.205 0 .41.016.615.063.111.032.19.127.19.237l-.064 2.007ZM117.86 14.87l1.72-5.767a.236.236 0 0 1 .236-.174h2.209c.174 0 .284.174.237.332l-3.724 10.73-.205.506c-.568 1.248-1.514 1.88-2.824 1.88-.315 0-.631-.031-.947-.11a.252.252 0 0 1-.189-.238v-1.485a.25.25 0 0 1 .253-.253l.252.016c.489 0 .726-.08.962-.237.237-.142.426-.395.568-.727l.3-.79-3.234-9.26c-.063-.159.063-.333.236-.333h2.209c.111 0 .205.08.237.174l1.704 5.737ZM130.687 13.954v4.283c0 .142-.11.253-.252.253h-2.162a.249.249 0 0 1-.252-.253V5.863c0-.142.11-.253.252-.253h4.765c.963 0 1.815.174 2.541.537.725.364 1.293.854 1.688 1.502.394.648.599 1.39.599 2.228 0 1.264-.426 2.26-1.293 2.987-.868.727-2.052 1.09-3.582 1.09h-2.304Zm0-2.15h2.367c.694 0 1.231-.157 1.609-.49.363-.33.553-.805.553-1.421 0-.632-.19-1.138-.553-1.533-.362-.395-.883-.585-1.53-.6h-2.43v4.045h-.016ZM139.144 6.448c0-.38.127-.696.379-.949.252-.252.6-.379 1.041-.379.442 0 .789.127 1.042.38.252.252.394.568.394.948 0 .395-.126.71-.394.948-.269.253-.616.38-1.042.38-.426 0-.773-.127-1.041-.38-.252-.237-.379-.57-.379-.948Zm2.462 12.041h-2.067a.25.25 0 0 1-.253-.252V9.166a.25.25 0 0 1 .253-.253h2.067c.142 0 .252.11.252.253v9.07c-.016.143-.126.253-.252.253ZM33.37 24.732c-.19-1.991-1.089-3.761-2.35-4.694a5.94 5.94 0 0 0-1.09-2.133c-.078-.933-.473-2.766-2.319-4.393.205-.19.395-.396.537-.648 1.546-.696 2.619-2.134 2.745-3.208.82-.822 1.294-1.802 1.325-2.766a2.678 2.678 0 0 0-.236-1.248c.678-.743.899-1.596.615-2.45C32.139 1.865 30.53.996 28.368.901c-.583-.538-1.388-.806-2.35-.806-.41 0-.852.047-1.278.158C24.392.079 23.967 0 23.493 0c-.804 0-1.704.253-2.382.648-.11-.016-.205-.016-.3-.016-1.073 0-2.146.743-2.698 1.185a8.889 8.889 0 0 0-1.42 1.47 8.32 8.32 0 0 0-1.42-1.47c-.52-.442-1.61-1.185-2.682-1.185-.095 0-.19 0-.284.016A4.982 4.982 0 0 0 9.924 0c-.473 0-.899.095-1.246.253A5.055 5.055 0 0 0 7.4.095c-.963 0-1.783.284-2.351.806-2.177.095-3.787.964-4.244 2.291C.52 4.03.742 4.9 1.42 5.642c-.173.363-.252.79-.237 1.248.032.964.505 1.944 1.326 2.766.126 1.074 1.215 2.528 2.745 3.208.142.252.331.474.537.648-1.846 1.611-2.24 3.445-2.32 4.393a5.701 5.701 0 0 0-1.088 2.133C1.12 20.971.22 22.741.032 24.732c-.19 1.975.363 3.824 1.467 4.994.158.884.663 2.054 1.2 2.765.11 1.501.74 2.987 1.814 4.188 1.072 1.217 2.477 2.054 3.991 2.37.915.854 1.878 1.454 3.187 1.976.568.584 2.24 1.96 5.018 1.96 2.777 0 4.45-1.392 5.017-1.96 1.31-.522 2.272-1.122 3.187-1.976 1.515-.316 2.92-1.153 3.992-2.37 1.057-1.201 1.704-2.687 1.814-4.188.537-.711 1.042-1.865 1.2-2.765 1.104-1.17 1.64-3.019 1.451-4.994Zm-7.447-6.053a11.661 11.661 0 0 1-3.471-2.923c-1.247-1.486-.442-2.15 1.53-1.786 1.468.348 2.84 1.517 3.456 2.892.678 1.865.142 2.765-1.515 1.817ZM20.748 2.892c.11-.032.22.063.22.174-.047.505.253.442.332.363.805-.995 1.657-1.232 2.414-1.17.126.017.205.175.11.27-.3.442.016.537.142.458 1.231-.775 2.415-.775 2.872-.459.095.064.095.19.016.27-.458.394-.205.584-.047.52 1.262-.442 2.997-.047 3.597.459a.165.165 0 0 1 0 .253c-.758.68-1.136 1.217-1.31 2.291-.031.3.458.237.679.19.11-.032.205.047.205.158.016.727-.663 1.517-1.688 2.196-.142.095-.11.317.189.317.142.015.205.142.142.252-.363.68-.852 1.312-2.54 1.739-.158.047-.174.253-.032.332.142.079.158.205.047.284-1.672 1.438-5.916.87-6.453-1.549-.015-.047 0-.095.032-.142 1.01-1.343 3.345-3.982 7.037-5.357.142-.063.095-.285-.063-.253-3.582.537-6.106 2.529-7.637 4.615a.17.17 0 0 1-.22.047c-2.683-1.375-.458-5.531 1.956-6.258Zm-4.04 10.73c.521 0 1.878.048 3.298 1.154 2.367 1.975-.347 3.366-3.297 3.366s-5.665-1.39-3.298-3.366c1.42-1.106 2.777-1.154 3.298-1.154ZM4.766 9.466c-.063-.11 0-.237.142-.253.316-.016.331-.221.19-.316-1.01-.68-1.705-1.47-1.689-2.197 0-.11.11-.19.205-.158.205.048.71.111.679-.19-.174-1.074-.553-1.611-1.31-2.29a.165.165 0 0 1 0-.253c.6-.506 2.335-.901 3.597-.459.158.063.41-.142-.047-.521-.079-.08-.079-.206.016-.269.473-.348 1.657-.348 2.887.427.126.079.442 0 .142-.459-.079-.11-.016-.268.11-.268.758-.063 1.61.158 2.415 1.17.079.094.378.157.331-.364-.016-.127.095-.221.22-.174 2.415.743 4.64 4.883 1.926 6.29-.08.031-.174.015-.221-.048-1.53-2.086-4.055-4.077-7.637-4.614-.157-.016-.22.205-.063.253 3.692 1.39 6.027 4.013 7.037 5.357.032.047.047.095.032.142-.537 2.418-4.78 2.987-6.453 1.549-.095-.08-.095-.222.047-.285a.177.177 0 0 0-.032-.332c-1.672-.426-2.161-1.074-2.524-1.738Zm1.23 7.412c.6-1.375 1.989-2.545 3.456-2.892 1.956-.364 2.777.3 1.53 1.785a11.899 11.899 0 0 1-3.47 2.924c-1.673.932-2.21.032-1.515-1.817ZM2.573 27.197c-.552-1.438-.41-3.176.394-4.52.868-1.485 1.752-1.422 2.099-.174.457 1.66.284 3.651-.458 5.215-.647 1.296-1.451.87-2.035-.521Zm6.295 9.64c-2.098-.443-3.881-2.56-3.96-4.71.331-7.632 11.328 6.021 3.96 4.71Zm.221-9.514C7.242 26.25 6.753 23.641 8 21.493c1.247-2.15 3.74-3.035 5.586-1.976 1.846 1.074 2.335 3.682 1.088 5.831-1.23 2.15-3.739 3.034-5.585 1.975ZM19.785 39.76a5.188 5.188 0 0 1-3.076.996 5.188 5.188 0 0 1-3.077-.996c-1.83-1.264.016-2.718 3.077-2.718 3.06 0 4.907 1.454 3.076 2.718Zm-3.076-4.63c-2.367 0-4.276-1.643-4.276-3.682 0-2.039 1.925-3.682 4.276-3.682 2.35 0 4.276 1.66 4.276 3.682 0 2.023-1.91 3.682-4.276 3.682Zm2.02-9.782c-1.247-2.15-.758-4.772 1.088-5.831 1.846-1.075 4.355-.19 5.585 1.975 1.231 2.165.758 4.773-1.088 5.831-1.846 1.06-4.355.174-5.586-1.975Zm5.806 11.489c-7.369 1.296 3.628-12.358 3.96-4.71-.08 2.15-1.862 4.267-3.96 4.71Zm6.31-9.64c-.583 1.39-1.388 1.817-2.035.537-.726-1.564-.899-3.555-.457-5.215.347-1.264 1.23-1.327 2.098.174.805 1.328.931 3.066.395 4.504ZM48.296 32.143H42.9v5.69h-1.688v-12.88h7.967v1.39H42.9v4.41h5.397v1.39ZM50.031 32.965c0-.932.19-1.786.553-2.528a4.213 4.213 0 0 1 1.53-1.739c.663-.41 1.404-.616 2.24-.616 1.294 0 2.351.458 3.156 1.36.805.9 1.2 2.1 1.2 3.602v.11c0 .933-.174 1.77-.537 2.513-.363.743-.868 1.312-1.53 1.723-.663.41-1.42.616-2.288.616-1.294 0-2.351-.458-3.156-1.359-.805-.9-1.2-2.102-1.2-3.587v-.095h.032Zm1.657.19c0 1.059.252 1.912.742 2.56.489.648 1.151.964 1.972.964.836 0 1.483-.332 1.972-.98.49-.648.726-1.564.726-2.734 0-1.043-.253-1.896-.742-2.56-.505-.648-1.151-.98-1.988-.98-.804 0-1.451.316-1.956.964-.49.648-.726 1.58-.726 2.766ZM66.44 36.9c-.63.743-1.562 1.122-2.808 1.122-1.026 0-1.799-.3-2.335-.885-.537-.585-.805-1.47-.805-2.639v-6.226h1.641v6.179c0 1.453.584 2.18 1.767 2.18 1.247 0 2.083-.458 2.493-1.39v-6.97h1.64v9.577h-1.561l-.032-.948ZM71.789 28.271l.047 1.201c.726-.916 1.689-1.374 2.856-1.374 2.02 0 3.045 1.137 3.06 3.429v6.321h-1.64v-6.337c0-.695-.158-1.2-.473-1.533-.316-.332-.79-.49-1.452-.49-.536 0-.994.143-1.388.427a2.83 2.83 0 0 0-.931 1.122v6.827h-1.641v-9.577h1.562v-.015ZM79.536 32.98c0-1.469.347-2.654 1.041-3.539.694-.9 1.61-1.343 2.73-1.343 1.12 0 2.004.379 2.666 1.153v-4.993h1.641v13.59h-1.499l-.079-1.027c-.647.806-1.562 1.201-2.73 1.201-1.104 0-2.003-.458-2.713-1.359-.694-.9-1.041-2.086-1.041-3.556v-.126h-.016Zm1.625.175c0 1.09.22 1.928.678 2.544.442.616 1.073.917 1.862.917 1.042 0 1.799-.459 2.272-1.391v-4.393c-.489-.901-1.246-1.36-2.256-1.36-.805 0-1.42.317-1.877.933-.442.616-.679 1.533-.679 2.75ZM95.803 37.833c-.095-.19-.174-.522-.237-1.012-.757.79-1.672 1.185-2.714 1.185-.946 0-1.72-.268-2.319-.806a2.61 2.61 0 0 1-.9-2.022c0-.996.38-1.77 1.137-2.323.757-.554 1.814-.822 3.187-.822h1.593v-.743c0-.569-.173-1.027-.505-1.375-.347-.332-.852-.505-1.514-.505-.584 0-1.073.142-1.468.442-.394.3-.6.648-.6 1.075h-1.64c0-.474.174-.933.505-1.391.331-.458.805-.79 1.373-1.059a4.74 4.74 0 0 1 1.909-.395c1.104 0 1.956.269 2.587.822.631.553.947 1.311.978 2.275v4.41c0 .884.11 1.58.332 2.101v.143h-1.704ZM93.089 36.6c.505 0 .994-.127 1.452-.395.457-.269.788-.617.993-1.043v-1.96h-1.277c-2.004 0-2.998.585-2.998 1.754 0 .506.173.917.505 1.201.331.285.789.443 1.325.443ZM101.783 25.948v2.323h1.782v1.265h-1.782v5.942c0 .379.078.663.236.869.158.19.426.284.805.284.189 0 .442-.031.773-.11v1.311c-.426.111-.852.174-1.262.174-.726 0-1.278-.221-1.657-.663-.379-.443-.552-1.075-.552-1.881V29.52H98.39v-1.264h1.736v-2.323h1.657v.015ZM105.301 25.727c0-.268.079-.49.237-.68.157-.189.394-.268.725-.268.316 0 .553.095.726.269.158.19.253.41.253.68 0 .268-.079.49-.253.663-.158.174-.41.269-.726.269-.315 0-.552-.095-.725-.269a.95.95 0 0 1-.237-.664Zm1.767 12.105h-1.641v-9.576h1.641v9.576ZM109.056 32.965c0-.932.189-1.786.552-2.528a4.215 4.215 0 0 1 1.531-1.739c.662-.41 1.404-.616 2.24-.616 1.294 0 2.351.458 3.156 1.36.804.9 1.199 2.1 1.199 3.602v.11c0 .933-.174 1.77-.537 2.513-.362.743-.867 1.312-1.53 1.723-.663.41-1.42.616-2.288.616-1.294 0-2.351-.458-3.155-1.359-.805-.9-1.199-2.102-1.199-3.587v-.095h.031Zm1.657.19c0 1.059.252 1.912.741 2.56.489.648 1.152.964 1.973.964.836 0 1.483-.332 1.972-.98.489-.648.726-1.564.726-2.734 0-1.043-.253-1.896-.742-2.56-.489-.664-1.152-.98-1.988-.98-.805 0-1.452.316-1.956.964-.49.648-.726 1.58-.726 2.766ZM121.063 28.271l.047 1.201c.726-.916 1.689-1.374 2.856-1.374 2.02 0 3.045 1.137 3.061 3.429v6.321h-1.641v-6.337c0-.695-.158-1.2-.473-1.533-.316-.332-.789-.49-1.452-.49-.536 0-.994.143-1.388.427-.395.285-.71.648-.931 1.122v6.827h-1.641v-9.577h1.562v-.015Z"/></g><defs><clipPath id="a"><path fill="#fff" d="M0 0h142v43H0z"/></clipPath></defs></svg>