<svg width="271" height="195" viewBox="0 0 271 195" fill="none" xmlns="http://www.w3.org/2000/svg">
<path d="M208.557 0L189.225 34.3386L218.37 21.6195L208.557 0Z" fill="white"/>
<path d="M17.7882 40.7815L6.50806 62.8109L41.1725 60.1617L17.7882 40.7815Z" fill="white"/>
<path d="M123.592 181.865L144.545 194.068L139.788 155.268L123.592 181.865Z" fill="white"/>
<path d="M217.691 115.617L270.495 66.0594L187.619 43.2438L194.101 62.3661L164.115 0.838257L123.733 37.3276L34.0748 0.838257L65.7799 89.694L0 149.136L71.5855 146.264L70.7018 195L141.567 143.796L196.102 189.894L188.805 141.365L238.612 148.798L217.691 115.621L217.691 115.617ZM205.709 96.6151L196.577 82.1334L199.114 77.1584L205.709 96.6151Z" fill="white"/>
<path d="M158.203 98.1845L26.6586 128.133L24.2949 71.8741L155.843 42.4457L158.203 98.1845Z" fill="#221C35"/>
<path d="M245.075 122.223L99.0657 156.238L97.8442 100.354L241.26 66.5283L245.075 122.223Z" fill="#221C35"/>
<path d="M216.428 65.199L164.506 77.7364L163.65 46.56L214.324 34.8911L216.428 65.199Z" fill="#221C35"/>
<path d="M91.1453 150.635L42.1826 162.249V131.084L90.6138 119.844L91.1453 150.635Z" fill="#221C35"/>
<path d="M74.9202 139.449L70.9996 136.774L70.9845 136.792L61.4543 130.313L58.6797 134.092L68.2174 140.576L61.5033 149.755L65.424 152.43L72.1418 143.247H72.1456L74.9202 139.467L74.9127 139.46L74.9202 139.449Z" fill="#FFC629"/>
<path d="M197.323 55.1001L193.402 52.4255L193.387 52.4437L183.853 45.9642L181.079 49.7436L190.616 56.2267L183.906 65.4062L187.827 68.0808L194.544 58.8977L197.323 55.1183L197.312 55.111L197.323 55.1001Z" fill="#FFC629"/>
<path d="M49.473 100.612L49.6411 105.644C49.6046 107.159 49.3354 108.577 48.8713 109.841C48.3707 110.961 47.7604 112.057 46.8073 113.033C45.8287 114.114 44.4972 114.827 42.7744 115.228C41.0527 115.63 39.6774 115.548 38.5894 114.948C37.5746 114.432 36.9058 113.634 36.4712 112.731C35.8525 111.72 35.543 110.487 35.4695 108.947L34.8445 87.3531C34.8437 85.8965 35.0756 84.5374 35.577 83.2153C36.0768 82.0946 36.6265 80.9625 37.5795 79.9871C38.5325 79.0118 39.8897 78.1934 41.6615 77.7802C43.4329 77.367 44.7825 77.5545 45.7974 78.0713C46.8126 78.5877 47.5425 79.4217 47.9771 80.3244C48.5833 81.2878 48.8928 82.5212 49.0161 84.049L49.1352 89.0923L44.1654 90.2509L44.0455 85.2075C44.0173 84.2605 43.7274 83.5242 43.154 83.1059C42.898 82.9148 42.4682 82.8639 41.9273 82.99C40.992 83.208 40.5682 84.0097 40.3289 84.718C40.2648 85.085 40.175 85.5575 40.1581 86.1135L40.7839 107.708C40.8619 108.644 41.1511 109.38 41.6754 109.81C41.9322 110.001 42.2632 110.075 42.7057 109.972C43.8374 109.708 44.2853 109.001 44.5006 108.197C44.5771 107.878 44.6668 107.406 44.6713 106.802L44.5028 101.77L49.473 100.612Z" fill="white"/>
<path d="M66.6638 101.674C66.6273 103.188 66.3585 104.607 65.894 105.871C65.3934 106.991 64.7834 108.087 63.83 109.063C62.8514 110.144 61.5199 110.857 59.7974 111.258C58.075 111.66 56.7009 111.578 55.6129 110.979C54.5973 110.462 53.9285 109.664 53.4939 108.762C52.8756 107.751 52.5657 106.517 52.493 104.978L51.8672 83.3837C51.8664 81.9272 52.0983 80.568 52.5997 79.246C53.1003 78.1253 53.6496 76.9933 54.6022 76.0179C55.556 75.0425 56.9124 74.2241 58.6842 73.8109C60.456 73.3977 61.8053 73.5853 62.8201 74.102C63.8353 74.6188 64.5652 75.4524 64.9998 76.3551C65.606 77.3185 65.9155 78.5519 66.0388 80.0796L66.6638 101.674ZM60.7241 81.3185C60.6834 80.3242 60.4059 79.6352 59.9301 79.194C59.6742 79.0029 59.2942 78.9407 58.8508 79.0439C57.9155 79.262 57.4918 80.0636 57.3022 80.7606C57.2008 81.1866 57.1601 81.6477 57.1804 82.1448L57.8062 103.739C57.7858 104.697 58.075 105.433 58.6001 105.864C58.8561 106.055 59.1871 106.129 59.6301 106.025C60.5654 105.807 61.0128 105.101 61.1791 104.309C61.2545 103.99 61.345 103.517 61.3499 102.913L60.7241 81.3185Z" fill="white"/>
<path d="M84.081 97.6149C84.0444 99.1295 83.7753 100.548 83.3104 101.812C82.8109 102.933 82.2002 104.028 81.2472 105.004C80.2686 106.085 78.9371 106.798 77.2143 107.199C75.4926 107.601 74.1174 107.519 73.0294 106.92C72.0142 106.403 71.3458 105.605 70.9111 104.703C70.2925 103.692 69.983 102.458 69.9095 100.919L69.2837 79.3249C69.2829 77.8687 69.5148 76.5092 70.0169 75.1875C70.5164 74.0668 71.0657 72.9348 72.0194 71.9591C72.9725 70.9833 74.3296 70.1653 76.1014 69.7521C77.8732 69.3389 79.2225 69.5268 80.2365 70.0432C81.2521 70.56 81.9823 71.3936 82.417 72.2963C83.0232 73.2597 83.3327 74.4931 83.4552 76.0208L84.081 97.6149ZM78.1413 77.2596C78.0994 76.2654 77.8227 75.5764 77.3473 75.1348C77.0914 74.9441 76.711 74.8815 76.268 74.9847C75.3328 75.2028 74.909 76.0045 74.7194 76.7015C74.6172 77.1274 74.5773 77.5885 74.5976 78.0857L75.2234 99.6801C75.2031 100.638 75.4918 101.375 76.0166 101.805C76.2729 101.996 76.6036 102.07 77.0465 101.966C77.9818 101.749 78.4297 101.041 78.5952 100.25C78.6717 99.9305 78.7614 99.4577 78.7659 98.8541L78.1413 77.2596Z" fill="white"/>
<path d="M86.825 67.6518L92.1397 66.4126L93.0527 98.0819L100.089 96.4414L100.246 101.426L87.8948 104.305L86.825 67.6522V67.6518Z" fill="white"/>
<path d="M101.339 64.269L113.494 61.4355L113.633 66.976L106.793 68.5706L107.072 78.196L111.993 77.0487L112.168 82.9325L107.246 84.0798L107.534 94.1547L114.375 92.5601L114.564 98.0896L102.41 100.923L101.339 64.2704V64.269Z" fill="white"/>
<path d="M125.53 68.5204C125.491 67.3251 125.415 65.9867 125.018 65.0252C124.632 64.1108 124.071 63.5381 123.236 63.7333C121.87 64.1021 121.477 65.6502 121.545 67.7928C121.597 69.0361 122.103 70.2237 122.977 71.4251C123.852 72.6276 124.837 73.8537 125.943 75.1521C127.319 76.689 128.51 78.3199 129.54 79.9371C130.521 81.5666 131.22 83.3116 131.253 85.3122C131.295 87.7626 131.043 90.0808 129.934 92.0962C128.825 94.1124 127.107 95.5674 124.155 96.2553C120.76 97.0472 118.777 96.2034 117.661 94.455C116.447 92.73 116.221 90.1716 116.097 87.389L121.292 85.6756C121.317 87.2262 121.439 88.7543 121.861 89.8107C122.294 90.9151 122.877 91.5823 124.01 91.3185C125.584 90.9515 126.065 89.1323 126.047 86.7767C126.007 85.5807 125.429 84.3103 124.542 83.0605C124.311 82.7629 124.068 82.418 123.837 82.1204C123.606 81.8224 123.363 81.4779 123.132 81.1799C122.61 80.5487 122.025 79.8818 121.429 79.1667C120.833 78.4518 120.238 77.7381 119.618 76.9277C118.329 75.3207 117.434 73.6211 116.834 71.8532C116.46 70.9868 116.37 70.0034 116.329 69.0088C116.247 67.0195 116.621 64.7733 117.754 62.8524C118.8 61.0016 120.494 59.452 122.992 58.8193C126.276 58.0035 128.123 58.928 129.227 60.6294C130.294 62.3887 130.68 64.7588 130.725 66.8069L125.53 68.5204Z" fill="white"/>
<path d="M131.592 62.7891L131.453 57.2487L146.805 53.6696L146.944 59.21L141.926 60.3798L142.856 91.4932L137.542 92.7324L136.612 61.619L131.592 62.7891Z" fill="white"/>
<path d="M107.57 106.714L112.885 105.474C115.198 104.936 117.494 104.953 119.337 106.281C121.181 107.608 122.475 110.067 122.539 114.27C122.604 118.472 121.524 121.435 119.825 123.589C118.126 125.742 115.82 126.933 113.507 127.472L113.955 142.129L108.64 143.368L107.57 106.715V106.714ZM113.33 121.99C114.954 121.612 116.015 121.063 116.55 120.085C117.147 119.142 117.219 117.77 117.175 115.722C117.13 113.674 116.944 112.311 116.324 111.501C115.728 110.787 114.637 110.59 113.013 110.968L113.33 121.99Z" fill="white"/>
<path d="M135.455 137.117L132.21 122.308L130.782 122.641L131.273 138.092L125.959 139.331L124.889 102.678L130.203 101.439C136.551 99.9594 139.327 102.927 139.566 109.901C139.647 113.547 138.808 117.056 136.829 118.924L140.77 135.879L135.455 137.118V137.117ZM130.675 117.645C131.413 117.473 132.385 117.196 133.142 116.266C133.898 115.337 134.524 113.886 134.446 111.293C134.369 108.701 133.703 107.5 132.884 106.937C132.067 106.375 131.083 106.605 130.344 106.776L130.675 117.645Z" fill="white"/>
<path d="M157.328 124.437C157.292 125.952 157.022 127.37 156.558 128.633C156.058 129.754 155.447 130.85 154.494 131.826C153.516 132.907 152.184 133.619 150.461 134.021C148.74 134.422 147.364 134.341 146.276 133.741C145.261 133.225 144.593 132.426 144.158 131.524C143.54 130.513 143.23 129.28 143.157 127.74L142.531 106.145C142.53 104.69 142.762 103.33 143.264 102.008C143.764 100.887 144.314 99.7553 145.267 98.7795C146.22 97.8045 147.577 96.9861 149.349 96.5729C151.12 96.1597 152.47 96.3476 153.484 96.864C154.499 97.3804 155.23 98.2144 155.664 99.1175C156.27 100.08 156.58 101.314 156.702 102.842L157.328 124.437ZM151.388 104.081C151.347 103.087 151.07 102.398 150.594 101.956C150.339 101.765 149.958 101.703 149.515 101.806C148.58 102.024 148.156 102.826 147.967 103.523C147.864 103.948 147.824 104.409 147.845 104.907L148.471 126.501C148.45 127.46 148.739 128.196 149.263 128.626C149.52 128.817 149.851 128.891 150.294 128.788C151.229 128.57 151.676 127.863 151.843 127.071C151.918 126.751 152.009 126.279 152.013 125.675L151.388 104.081Z" fill="white"/>
<path d="M159.323 126.585C160.393 126.486 161.158 126.006 161.668 125.134C161.941 124.77 162.094 124.131 162.076 123.232L161.252 94.2023L166.567 92.9635L167.396 122.846C167.479 124.835 167.033 126.796 165.829 128.433C164.624 130.069 162.65 131.332 159.453 131.877L159.323 126.585Z" fill="white"/>
<path d="M170.255 92.1017L182.409 89.2682L182.549 94.809L175.709 96.4036L175.988 106.028L180.909 104.881L181.083 110.765L176.163 111.913L176.451 121.988L183.29 120.393L183.479 125.922L171.325 128.756L170.255 92.1027V92.1017Z" fill="white"/>
<path d="M199.868 109.45L200.036 114.482C199.999 115.997 199.73 117.415 199.266 118.678C198.765 119.799 198.155 120.895 197.202 121.871C196.223 122.952 194.892 123.664 193.169 124.066C191.447 124.467 190.072 124.386 188.984 123.787C187.969 123.27 187.3 122.472 186.866 121.569C186.247 120.558 185.938 119.325 185.864 117.786L185.239 96.1911C185.238 94.7353 185.47 93.3758 185.972 92.0541C186.472 90.933 187.021 89.8009 187.974 88.8252C188.928 87.8502 190.284 87.0318 192.056 86.6186C193.828 86.2054 195.177 86.3933 196.192 86.9093C197.207 87.4261 197.937 88.2597 198.372 89.1628C198.978 90.1258 199.287 91.3592 199.411 92.887L199.53 97.9303L194.56 99.0889L194.44 94.0459C194.411 93.0989 194.122 92.3626 193.549 91.9443C193.293 91.7532 192.863 91.7026 192.322 91.8287C191.386 92.0468 190.963 92.8485 190.723 93.5567C190.659 93.9231 190.57 94.3962 190.553 94.9519L191.178 116.547C191.256 117.482 191.546 118.219 192.07 118.648C192.326 118.84 192.658 118.913 193.1 118.809C194.232 118.546 194.68 117.838 194.895 117.035C194.972 116.716 195.061 116.243 195.066 115.64L194.898 110.608L199.868 109.45Z" fill="white"/>
<path d="M200.655 90.5859L200.516 85.0451L215.868 81.4659L216.007 87.0071L210.989 88.1773L211.919 119.291L206.605 120.53L205.675 89.4165L200.655 90.5859Z" fill="white"/>
<path d="M227.018 88.7618C226.978 87.5658 226.903 86.2274 226.505 85.2658C226.12 84.3515 225.559 83.7795 224.723 83.9743C223.357 84.3431 222.964 85.8909 223.033 88.0339C223.085 89.2767 223.59 90.4643 224.465 91.6661C225.34 92.8679 226.325 94.0948 227.431 95.3932C228.806 96.9304 229.997 98.561 231.028 100.178C232.009 101.807 232.707 103.552 232.741 105.553C232.782 108.003 232.531 110.322 231.421 112.338C230.313 114.353 228.594 115.808 225.642 116.496C222.247 117.288 220.264 116.445 219.148 114.697C217.934 112.971 217.71 110.413 217.584 107.63L222.78 105.917C222.804 107.468 222.927 108.995 223.348 110.052C223.781 111.156 224.366 111.823 225.497 111.56C227.072 111.193 227.553 109.373 227.535 107.018C227.495 105.821 226.916 104.551 226.03 103.302C225.799 103.003 225.556 102.659 225.325 102.361C225.094 102.063 224.851 101.718 224.62 101.421C224.097 100.789 223.513 100.123 222.917 99.4077C222.322 98.6933 221.725 97.9788 221.106 97.1692C219.817 95.5618 218.922 93.8622 218.322 92.0942C217.948 91.2271 217.858 90.2441 217.817 89.2498C217.734 87.2606 218.108 85.0144 219.241 83.093C220.287 81.2422 221.982 79.693 224.48 79.0607C227.765 78.2445 229.612 79.1693 230.715 80.8704C231.782 82.6304 232.168 85.0002 232.213 87.0487L227.018 88.7618Z" fill="white"/>
</svg>
