<svg width="30" height="25" fill="none" xmlns="http://www.w3.org/2000/svg"><path d="M26.849 6.223c.018.263.018.526.018.792 0 8.096-6.145 17.433-17.382 17.433v-.005c-3.32.005-6.57-.949-9.364-2.747a12.243 12.243 0 0 0 9.041-2.54 6.119 6.119 0 0 1-5.707-4.254 6.07 6.07 0 0 0 2.758-.105 6.123 6.123 0 0 1-4.9-6.006v-.078c.849.475 1.8.738 2.772.767a6.146 6.146 0 0 1-1.89-8.18 17.322 17.322 0 0 0 12.59 6.4 6.142 6.142 0 0 1 1.767-5.853 6.103 6.103 0 0 1 8.643.265c1.368-.27 2.68-.774 3.88-1.487a6.147 6.147 0 0 1-2.686 3.388 12.122 12.122 0 0 0 3.508-.964 12.431 12.431 0 0 1-3.048 3.174Z" fill="#fff"/></svg>